<?xml version="1.0" encoding="UTF-8"?>
<svg width="153px" height="20px" viewBox="0 0 153 20" version="1.1" xmlns="http://www.w3.org/2000/svg" xmlns:xlink="http://www.w3.org/1999/xlink">
    <title>logo-black</title>
    <g id="logo-black" stroke="none" stroke-width="1" fill="none" fill-rule="evenodd">
        <path d="M6.875,19.35 C10.6,19.35 13.225,17.35 13.225,14.075 C13.225,10.5 10.275,9.575 7.5,8.7 C4.85,7.9 4.175,7.325 4.175,6.25 C4.175,5.25 5.025,4.5 6.475,4.5 C8.25,4.5 9.2,5.425 9.825,6.75 L12.725,5.075 C11.55,2.625 9.35,1.15 6.475,1.15 C3.475,1.15 0.725,3.05 0.725,6.35 C0.725,9.675 3.325,10.8 6,11.575 C8.6,12.325 9.775,12.825 9.775,14.125 C9.775,15.1 9.05,15.975 6.975,15.975 C4.8,15.975 3.575,14.925 2.95,13.3 L1.42108547e-14,15.025 C0.95,17.625 3.3,19.35 6.875,19.35 Z M21.875,19.35 C24.275,19.35 26.15,18.375 27.325,16.675 L24.725,15.175 C24.175,15.9 23.175,16.425 21.925,16.425 C20.225,16.425 18.85,15.725 18.4,14.075 L27.825,14.075 C27.9,13.65 27.95,13.225 27.95,12.75 C27.95,9.075 25.325,6.15 21.625,6.15 C17.7,6.15 15.025,9.025 15.025,12.75 C15.025,16.475 17.675,19.35 21.875,19.35 Z M24.725,11.575 L18.35,11.575 C18.725,9.975 19.9,9.05 21.625,9.05 C22.975,9.05 24.325,9.775 24.725,11.575 Z M33.425,19 L33.425,11.975 C33.425,10.1 34.4,9.15 35.775,9.15 C37.125,9.15 37.875,10.05 37.875,11.525 L37.875,19 L41.1,19 L41.1,11.975 C41.1,10.1 42,9.15 43.425,9.15 C44.775,9.15 45.525,10.05 45.525,11.525 L45.525,19 L48.75,19 L48.75,11.3 C48.75,8.175 46.875,6.15 44.025,6.15 C42.325,6.15 41.075,6.825 40.3,7.95 C39.6,6.8 38.45,6.15 36.9,6.15 C35.3,6.15 34.125,6.775 33.425,7.825 L33.425,6.5 L30.2,6.5 L30.2,19 L33.425,19 Z M53.1,5 C54.2,5 55.1,4.1 55.1,3.025 C55.1,1.95 54.2,1.025 53.1,1.025 C52.025,1.025 51.125,1.95 51.125,3.025 C51.125,4.1 52.025,5 53.1,5 Z M54.725,19 L54.725,6.5 L51.5,6.5 L51.5,19 L54.725,19 Z M60.9,19 L60.9,12.25 C60.9,10.075 62.075,9.15 63.65,9.15 C65.1,9.15 66.125,10.025 66.125,11.725 L66.125,19 L69.35,19 L69.35,11.325 C69.35,8 67.275,6.15 64.625,6.15 C62.95,6.15 61.65,6.775 60.9,7.9 L60.9,1.5 L57.675,1.5 L57.675,19 L60.9,19 Z M86.35,19 L86.35,12.175 L92.35,1.5 L88.45,1.5 L84.65,8.8 L80.85,1.5 L76.95,1.5 L82.925,12.175 L82.925,19 L86.35,19 Z M96.6,19 L96.6,6.5 L93.375,6.5 L93.375,19 L96.6,19 Z M102.775,19 L102.775,0.75 L99.55,0.75 L99.55,19 L102.775,19 Z M108.95,19 L108.95,11.975 C108.95,10.1 109.925,9.15 111.3,9.15 C112.65,9.15 113.4,10.05 113.4,11.525 L113.4,19 L116.625,19 L116.625,11.975 C116.625,10.1 117.525,9.15 118.95,9.15 C120.3,9.15 121.05,10.05 121.05,11.525 L121.05,19 L124.275,19 L124.275,11.3 C124.275,8.175 122.4,6.15 119.55,6.15 C117.85,6.15 116.6,6.825 115.825,7.95 C115.125,6.8 113.975,6.15 112.425,6.15 C110.825,6.15 109.65,6.775 108.95,7.825 L108.95,6.5 L105.725,6.5 L105.725,19 L108.95,19 Z M132.45,19.35 C134.275,19.35 135.625,18.65 136.525,17.525 L136.525,19 L139.75,19 L139.75,6.5 L136.525,6.5 L136.525,7.975 C135.625,6.85 134.275,6.15 132.45,6.15 C129.125,6.15 126.375,9.025 126.375,12.75 C126.375,16.475 129.125,19.35 132.45,19.35 Z M133.05,16.275 C131.075,16.275 129.6,14.85 129.6,12.75 C129.6,10.65 131.075,9.225 133.05,9.225 C135.05,9.225 136.525,10.65 136.525,12.75 C136.525,14.85 135.05,16.275 133.05,16.275 Z M152.15,19 L152.15,15.975 L146.6,15.975 L151.9,8.65 L151.9,6.5 L142.525,6.5 L142.525,9.525 L147.55,9.525 L142.275,16.85 L142.275,19 L152.15,19 Z" id="semihyilmaz" fill="#222222" fill-rule="nonzero"></path>
    </g>
</svg>